<?xml version="1.0" encoding="UTF-8" standalone="no"?>
<!DOCTYPE svg PUBLIC "-//W3C//DTD SVG 1.1//EN" "http://www.w3.org/Graphics/SVG/1.1/DTD/svg11.dtd">
<!-- Created with Inkscape (http://www.inkscape.org/) -->
<svg xmlns:dc="http://purl.org/dc/elements/1.1/" xmlns:cc="http://creativecommons.org/ns#" xmlns:rdf="http://www.w3.org/1999/02/22-rdf-syntax-ns#" xmlns:svg="http://www.w3.org/2000/svg" xmlns="http://www.w3.org/2000/svg" version="1.1" width="400" height="90" id="svg2985" xml:space="preserve"><metadata id="metadata2991"><rdf:RDF><cc:Work rdf:about=""><dc:format>image/svg+xml</dc:format><dc:type rdf:resource="http://purl.org/dc/dcmitype/StillImage"/><dc:title/></cc:Work></rdf:RDF></metadata><defs id="defs2989"><clipPath id="clipPath3001"><path d="m 0,793.701 595.276,0 L 595.276,0 0,0 0,793.701 z" id="path3003"/></clipPath><clipPath id="clipPath3015"><path d="m 56.693,266.929 496.06,0 0,-155.905 -496.06,0 0,155.905 z" id="path3017"/></clipPath></defs><g transform="matrix(1.25,0,0,-1.25,0,90.000029)" id="g2993"><path d="m 211.85271,4.8240482 -30.22388,0 0,13.3531298 21.80876,0 0,11.26306 -11.26067,0 c -4.85698,0 -8.88461,3.82982 -9.00615,8.70587 l 0.12154,20.66958 c 0,4.75928 4.02763,8.59148 8.88461,8.59148 l 26.42981,0 0,-13.5843 -17.89553,0 0,-10.45038 11.14151,0 c 4.97615,0 9.00616,-3.83221 8.88938,-8.59386 l 0,-21.3631 c 0.11678,-4.7592798 -3.91323,-8.7082598 -8.88938,-8.5914798 m 24.88787,62.5831198 25.48129,0 0,-13.70108 -16.71107,0 0,-35.64569 16.71107,0 0,-13.2363498 -25.36213,0 c -4.97852,-0.11678 -9.00853,3.8322 -9.00853,8.5914798 l -0.1144,45.40016 c 0,4.75928 4.02763,8.59148 9.00377,8.59148 M 8,4.8240482 8,67.407168 l 18.01469,0 10.66725,-26.24154 0,26.24154 18.01469,0 0,-62.5831198 -18.01469,0 L 25.89553,31.530308 26.01469,4.8240482 8,4.8240482 z m 55.94111,0 0,62.5831198 34.84493,0 0,-13.5843 -16.9494,0 0,-10.45038 16.9494,0 0,-13.93225 -16.9494,0 0,-11.37984 16.9494,0 0,-13.2363498 -34.84493,0 z m 47.28767,0 0,48.8820398 -9.00615,0 0,13.70108 35.20002,0 0,-13.70108 -9.00854,0 0,-48.8820398 -17.18533,0 z m 29.39452,48.9988198 0,13.5843 37.45216,0 0,-13.81786 -22.16386,-35.52891 21.09618,0 0,-13.4675198 -40.53126,0 -0.11916,13.4675198 22.16147,35.76247 -17.89553,0 z m 127.05136,-48.9988198 0,62.5831198 17.89553,0 0,-24.03468 8.41512,0 0,24.03468 18.01469,0 0,-62.5831198 -18.01469,0 0,24.6161898 -8.41512,0 0,-24.6161898 -17.89553,0 z" id="path3009" style="fill:#31766f;fill-opacity:1;fill-rule:nonzero;stroke:none"/></g></svg>