<?xml version="1.0" encoding="UTF-8" standalone="no"?>
<!-- Created with Inkscape (http://www.inkscape.org/) -->
<svg xmlns:svg="http://www.w3.org/2000/svg" xmlns="http://www.w3.org/2000/svg" version="1.0" width="828.07086" height="205.1929" id="svg1978">
  <defs id="defs1980">
  
  
 
   
   
  
    
    
    
    
    
    
    
    
    
    
    
   </defs>
  <g transform="translate(-49.91081,545.4589)" id="layer1">
    <g transform="translate(8.861798,8.855761)" id="g24250">
      <polygon points="-35.248,76.6091 -24.3397,76.6091 -24.3397,65.5754 -35.248,65.5754 -35.248,76.6091 " transform="matrix(3.543307,0,0,3.543307,174.8053,-695.1788)" style="fill:#999" id="polygon24160"/>
      <polygon points="-4.5293,76.6091 6.379,76.6091 6.379,65.5754 -4.5293,65.5754 -4.5293,76.6091 " transform="matrix(3.543307,0,0,3.543307,174.8053,-695.1788)" style="fill:#999" id="polygon24162"/>
      <polygon points="26.1894,76.6091 37.0977,76.6091 37.0977,65.5754 26.1894,65.5754 26.1894,76.6091 " transform="matrix(3.543307,0,0,3.543307,174.8053,-695.1788)" style="fill:#999" id="polygon24164"/>
      <polygon points="54.5259,76.6091 65.4342,76.6091 65.4342,65.5754 54.5259,65.5754 54.5259,76.6091 " transform="matrix(3.543307,0,0,3.543307,174.8053,-695.1788)" style="fill:#999" id="polygon24166"/>
      <path d="M 476.40914,-485.0384 C 476.40914,-479.26281 475.96481,-477.04151 474.63182,-475.70888 C 473.74351,-474.82022 471.52221,-474.37589 468.85658,-474.37589 L 467.52359,-474.37589 L 467.52359,-470.82159 L 493.73556,-470.82159 C 504.39808,-470.82159 512.83894,-473.48722 519.05886,-479.70714 C 526.16709,-486.37104 529.72138,-496.58923 529.72138,-507.69608 C 529.72138,-517.91427 526.61142,-526.35549 521.28016,-533.46372 C 514.61627,-541.01628 506.17504,-544.57057 493.73556,-544.57057 L 467.52359,-544.57057 L 467.52359,-541.01628 L 468.85658,-541.01628 C 471.52221,-541.01628 473.74351,-540.57195 474.63182,-539.68364 C 475.96481,-538.35065 476.40914,-536.12935 476.40914,-530.35376 L 476.40914,-485.0384 L 476.40914,-485.0384 z M 486.62733,-531.24242 C 486.62733,-536.12935 487.07131,-537.46199 487.95997,-538.79498 C 489.29296,-540.12762 491.95859,-541.01628 495.95686,-541.01628 C 511.5063,-541.01628 517.72587,-531.24242 517.72587,-507.69608 C 517.72587,-483.70541 511.95064,-474.82022 495.95686,-474.82022 C 487.95997,-474.82022 486.62733,-476.15285 486.62733,-484.59407 L 486.62733,-531.24242 z " style="fill:#999" id="path24168"/>
      <path d="M 578.14705,-496.58923 C 577.70272,-513.02734 569.70583,-523.24553 557.26634,-523.24553 C 545.71516,-523.24553 537.2743,-512.13868 537.2743,-496.58923 C 537.2743,-479.70714 545.71516,-469.04463 558.59898,-469.04463 C 567.0402,-469.04463 572.81579,-473.48722 577.25839,-483.26144 L 574.14843,-485.0384 C 570.15016,-476.59718 566.15154,-473.48722 560.3763,-473.48722 C 551.49075,-473.48722 547.93682,-480.15148 547.49248,-496.58923 L 578.14705,-496.58923 L 578.14705,-496.58923 z M 547.93682,-500.58785 C 547.93682,-512.13868 551.93508,-519.24726 558.155,-519.24726 C 564.37457,-519.24726 567.92886,-512.13868 567.92886,-500.58785 L 547.93682,-500.58785 L 547.93682,-500.58785 z " style="fill:#999" id="path24170"/>
      <path d="M 620.79784,-469.93329 L 635.90296,-470.82159 L 635.90296,-473.93155 L 634.57032,-473.93155 C 630.12736,-473.93155 629.23906,-475.70888 629.23906,-483.26144 L 629.23906,-522.35687 L 612.35662,-521.91254 L 612.35662,-518.3586 L 614.13394,-518.3586 C 618.57654,-518.3586 619.90918,-516.58163 619.90918,-509.47305 L 619.90918,-495.70092 C 619.90918,-489.481 619.02087,-485.48274 616.79957,-481.48411 C 614.57792,-477.04151 611.02398,-474.82022 607.02536,-474.82022 C 604.80406,-474.82022 602.58276,-476.15285 601.6941,-478.37451 C 600.80579,-480.59581 600.36146,-482.81711 600.36146,-487.2597 L 600.36146,-522.35687 L 583.92335,-521.91254 L 583.92335,-518.3586 L 585.25634,-518.3586 C 590.14327,-518.3586 591.03193,-516.58163 591.03193,-509.47305 L 591.03193,-490.36966 C 591.03193,-481.92844 591.47591,-478.37451 593.69756,-474.82022 C 595.91886,-471.26592 599.4728,-469.48896 604.35973,-469.48896 C 611.91229,-469.48896 616.79957,-473.48722 620.79784,-481.92844 L 620.79784,-469.93329 L 620.79784,-469.93329 z " style="fill:#999" id="path24172"/>
      <path d="M 656.33721,-517.91427 L 671.44232,-517.91427 L 671.44232,-521.91254 L 656.33721,-521.91254 L 656.33721,-541.01628 L 653.22725,-541.01628 C 651.89461,-527.68813 648.78465,-523.24553 639.01079,-521.02423 L 639.01079,-517.91427 L 647.00768,-517.91427 L 647.00768,-487.2597 C 647.00768,-479.26281 647.89599,-476.15285 650.11764,-473.48722 C 652.33894,-470.82159 655.44855,-469.48896 659.8915,-469.48896 C 668.77669,-469.48896 673.21929,-475.26455 673.21929,-485.92707 L 673.21929,-488.14837 L 669.22103,-488.14837 L 669.22103,-486.81537 C 669.22103,-478.81848 666.99973,-474.37589 662.55713,-474.37589 C 659.8915,-474.37589 658.11418,-475.70888 657.22587,-478.37451 C 656.78154,-480.59581 656.33721,-482.81711 656.33721,-487.2597 L 656.33721,-517.91427 L 656.33721,-517.91427 z " style="fill:#999" id="path24174"/>
      <path d="M 709.6498,-521.91254 L 706.09587,-521.91254 C 706.09587,-520.13557 705.20721,-519.24726 704.76287,-519.24726 C 704.31854,-519.24726 703.43024,-519.69124 702.98591,-519.69124 C 699.87595,-521.91254 695.87768,-522.8012 692.32339,-522.8012 C 683.43784,-522.8012 677.6626,-517.02561 677.6626,-509.02907 C 677.6626,-501.47616 681.66087,-497.03356 690.54642,-493.9236 C 697.65465,-491.7023 697.65465,-491.7023 700.32028,-489.92533 C 702.98591,-488.14837 704.76287,-485.48274 704.76287,-481.92844 C 704.76287,-477.04151 701.20858,-473.04325 695.87768,-473.04325 C 691.43473,-473.04325 686.99213,-475.26455 684.3265,-479.26281 C 682.54953,-481.48411 681.66087,-484.14974 679.8839,-489.481 L 676.77394,-489.481 L 676.77394,-470.82159 L 679.8839,-470.82159 L 680.32823,-471.71026 C 680.77221,-473.48722 681.66087,-473.93155 682.1052,-473.93155 C 682.54953,-473.93155 682.99386,-473.93155 683.43784,-473.48722 C 688.7691,-470.37762 691.43473,-469.48896 695.87768,-469.48896 C 705.65154,-469.48896 712.75976,-476.15285 712.75976,-485.92707 C 712.75976,-490.81399 710.53847,-494.81226 706.53984,-497.92222 C 704.31854,-499.69919 701.20858,-501.03218 694.10036,-503.25348 C 686.99213,-505.47478 684.77083,-507.69608 684.77083,-511.69435 C 684.77083,-516.1373 688.32512,-519.69124 693.21205,-519.69124 C 700.32028,-519.69124 704.31854,-515.24864 706.09587,-505.47478 L 709.6498,-505.47478 L 709.6498,-521.91254 L 709.6498,-521.91254 z " style="fill:#999" id="path24176"/>
      <path d="M 754.96516,-485.0384 C 751.85555,-477.04151 747.85693,-473.48722 742.08134,-473.48722 C 733.64047,-473.48722 729.64185,-480.59581 729.64185,-496.58923 C 729.64185,-511.69435 734.0848,-519.24726 742.52567,-519.24726 C 746.96862,-519.24726 750.52256,-517.02561 752.29953,-513.47167 C 751.85555,-513.47167 751.41122,-513.47167 750.96689,-513.47167 C 748.30126,-513.47167 746.07996,-511.25037 746.07996,-508.14041 C 746.07996,-504.58612 748.30126,-501.92049 751.41122,-501.92049 C 755.40949,-501.92049 758.07512,-505.03045 758.07512,-509.02907 C 758.07512,-517.02561 750.52256,-523.24553 741.63736,-523.24553 C 728.30921,-523.24553 718.97969,-512.13868 718.97969,-496.58923 C 718.97969,-480.15148 727.42055,-469.04463 740.30437,-469.04463 C 748.74559,-469.04463 754.52118,-473.48722 758.51945,-483.70541 L 754.96516,-485.0384 L 754.96516,-485.0384 z " style="fill:#999" id="path24178"/>
      <path d="M 797.61594,-470.82159 L 814.0537,-470.82159 L 814.0537,-473.93155 L 812.72106,-473.93155 C 807.83413,-473.93155 806.94547,-475.70888 806.94547,-483.26144 L 806.94547,-501.03218 C 806.94547,-510.80604 806.05681,-514.35998 803.39118,-517.91427 C 801.16988,-521.02423 797.61594,-522.8012 792.72901,-522.8012 C 786.50909,-522.8012 782.06649,-519.69124 778.5122,-512.58301 L 778.5122,-545.45888 L 762.07445,-544.57057 L 762.07445,-541.46061 L 763.40709,-541.46061 C 768.29401,-541.46061 769.18268,-539.68364 769.18268,-532.57506 L 769.18268,-483.26144 C 769.18268,-475.70888 768.29401,-473.93155 763.40709,-473.93155 L 761.63012,-473.93155 L 761.63012,-470.82159 L 786.06476,-470.82159 L 786.06476,-473.93155 L 784.28779,-473.93155 C 779.40087,-473.93155 778.5122,-475.70888 778.5122,-483.26144 L 778.5122,-495.25659 C 778.5122,-502.80915 779.40087,-507.25175 781.17783,-511.25037 C 783.39913,-515.69297 786.95342,-517.91427 790.50736,-517.91427 C 792.72901,-517.91427 794.95031,-517.02561 795.83862,-514.80431 C 797.17161,-512.58301 797.61594,-510.36171 797.61594,-503.69781 L 797.61594,-470.82159 L 797.61594,-470.82159 z " style="fill:#999" id="path24180"/>
      <path d="M 860.25807,-496.58923 C 859.81374,-513.02734 851.81685,-523.24553 839.37736,-523.24553 C 827.82653,-523.24553 819.38531,-512.13868 819.38531,-496.58923 C 819.38531,-479.70714 827.82653,-469.04463 840.71035,-469.04463 C 849.15122,-469.04463 854.92681,-473.48722 859.36941,-483.26144 L 856.2598,-485.0384 C 852.26118,-476.59718 848.26291,-473.48722 842.48732,-473.48722 C 833.60212,-473.48722 830.04783,-480.15148 829.6035,-496.58923 L 860.25807,-496.58923 L 860.25807,-496.58923 z M 830.04783,-500.58785 C 830.04783,-512.13868 834.0461,-519.24726 840.26602,-519.24726 C 846.48594,-519.24726 850.03988,-512.13868 850.03988,-500.58785 L 830.04783,-500.58785 z " style="fill:#999" id="path24182"/>
      <path d="M 499.51115,-429.94919 L 500.84379,-429.94919 C 511.95064,-429.94919 516.83756,-424.1736 519.05886,-407.73549 L 522.16882,-408.17982 L 521.72449,-433.50313 L 467.07926,-433.50313 L 466.63493,-408.17982 L 469.74489,-407.73549 C 470.18922,-413.95541 471.07788,-417.06537 472.41052,-420.61931 C 475.07615,-426.3949 480.40741,-429.94919 486.62733,-429.94919 L 489.29296,-429.94919 L 489.29296,-373.97097 C 489.29296,-368.19573 488.84863,-365.97443 487.51564,-364.64144 C 486.183,-363.75278 483.9617,-363.3088 481.7404,-363.3088 L 479.07477,-363.3088 L 479.07477,-359.75451 L 509.28501,-359.75451 L 509.28501,-363.3088 L 507.06371,-363.3088 C 504.39808,-363.3088 502.17642,-363.75278 500.84379,-364.64144 C 499.51115,-365.97443 499.51115,-368.19573 499.51115,-373.97097 L 499.51115,-429.94919 z " style="fill:#999" id="path24184"/>
      <path d="M 563.48485,-385.52215 C 563.04087,-401.9599 555.04398,-412.17809 543.04847,-412.17809 C 531.05331,-412.17809 522.61209,-401.0716 522.61209,-385.52215 C 522.61209,-368.64006 531.05331,-357.97754 543.93713,-357.97754 C 552.37835,-357.97754 558.15394,-362.42014 563.04087,-372.194 L 559.48658,-373.97097 C 555.48831,-365.5301 551.93402,-362.42014 545.7141,-362.42014 C 536.8289,-362.42014 533.27461,-369.08404 533.27461,-385.52215 L 563.48485,-385.52215 L 563.48485,-385.52215 z M 533.27461,-389.52041 C 533.27461,-401.0716 537.27323,-408.17982 543.4928,-408.17982 C 549.71272,-408.17982 553.26666,-401.0716 553.26666,-389.52041 L 533.27461,-389.52041 L 533.27461,-389.52041 z " style="fill:#999" id="path24186"/>
      <path d="M 586.14429,-434.39179 L 569.70619,-433.50313 L 569.70619,-430.39317 L 571.03918,-430.39317 C 575.48178,-430.39317 576.81441,-428.6162 576.81441,-421.50797 L 576.81441,-372.194 C 576.81441,-364.64144 575.48178,-362.86447 571.03918,-362.86447 L 569.26185,-362.86447 L 569.26185,-359.75451 L 593.25252,-359.75451 L 593.25252,-362.86447 L 591.4752,-362.86447 C 587.0326,-362.86447 586.14429,-364.64144 586.14429,-372.194 L 586.14429,-434.39179 L 586.14429,-434.39179 z " style="fill:#999" id="path24188"/>
      <path d="M 639.45689,-385.52215 C 639.01256,-401.9599 631.01567,-412.17809 619.02051,-412.17809 C 607.46933,-412.17809 599.02847,-401.0716 599.02847,-385.52215 C 599.02847,-368.64006 607.025,-357.97754 619.90882,-357.97754 C 628.35004,-357.97754 634.12563,-362.42014 639.01256,-372.194 L 635.45827,-373.97097 C 631.90433,-365.5301 627.90571,-362.42014 621.68614,-362.42014 C 613.24492,-362.42014 609.24666,-369.08404 609.24666,-385.52215 L 639.45689,-385.52215 L 639.45689,-385.52215 z M 609.24666,-389.52041 C 609.24666,-401.0716 613.24492,-408.17982 619.46485,-408.17982 C 625.68441,-408.17982 629.2387,-401.0716 629.2387,-389.52041 L 609.24666,-389.52041 L 609.24666,-389.52041 z " style="fill:#999" id="path24190"/>
      <path d="M 696.32343,-359.75451 L 696.32343,-362.86447 L 695.43512,-362.86447 C 691.88083,-362.86447 690.10386,-364.64144 686.54957,-369.9727 L 673.22142,-391.29774 L 685.21693,-402.40423 C 690.10386,-406.40286 691.4365,-407.29116 694.54646,-407.29116 L 695.87945,-407.29116 L 695.87945,-410.84545 L 673.66575,-410.84545 L 673.66575,-407.29116 L 675.44307,-407.29116 C 678.99701,-407.29116 680.33,-406.40286 680.33,-404.62553 C 680.33,-403.29289 678.99701,-401.51593 677.22004,-399.7386 L 662.11492,-386.85478 L 662.11492,-434.39179 L 645.67681,-433.50313 L 645.67681,-430.39317 L 647.00981,-430.39317 C 651.89673,-430.39317 652.78504,-428.6162 652.78504,-421.50797 L 652.78504,-372.194 C 652.78504,-364.64144 651.89673,-362.86447 647.00981,-362.86447 L 645.23248,-362.86447 L 645.23248,-359.75451 L 669.66748,-359.75451 L 669.66748,-362.86447 L 667.89051,-362.86447 C 663.00323,-362.86447 662.11492,-364.64144 662.11492,-372.194 L 662.11492,-381.52388 L 666.55752,-385.52215 L 682.5513,-359.75451 L 696.32343,-359.75451 L 696.32343,-359.75451 z " style="fill:#999" id="path24192"/>
      <path d="M 722.53327,-412.17809 C 708.76114,-412.17809 699.87559,-401.51593 699.87559,-385.07782 C 699.87559,-369.08404 708.76114,-357.97754 722.08894,-357.97754 C 735.86142,-357.97754 744.74661,-369.08404 744.74661,-385.07782 C 744.74661,-401.0716 735.86142,-412.17809 722.53327,-412.17809 L 722.53327,-412.17809 z M 722.08894,-408.62415 C 726.08756,-408.62415 729.6415,-406.40286 731.41882,-401.9599 C 733.19579,-397.96164 734.08445,-392.63038 734.08445,-385.07782 C 734.08445,-369.52837 730.08583,-361.53148 722.08894,-361.53148 C 714.09205,-361.53148 710.53811,-369.52837 710.53811,-385.52215 C 710.53811,-392.63038 711.42642,-397.96164 713.20374,-401.9599 C 714.98071,-405.95852 718.535,-408.62415 722.08894,-408.62415 L 722.08894,-408.62415 z " style="fill:#999" id="path24194"/>
      <path d="M 810.94232,-359.75451 L 826.9361,-359.75451 L 826.9361,-362.86447 L 825.60346,-362.86447 C 821.16051,-362.86447 820.2722,-364.64144 820.2722,-372.194 L 820.2722,-392.18604 C 820.2722,-398.8503 819.38354,-402.84856 817.16224,-405.95852 C 814.94094,-409.51282 810.94232,-411.73411 806.05539,-411.73411 C 799.83583,-411.73411 795.39323,-408.62415 792.28327,-401.51593 C 789.61764,-408.62415 785.61901,-411.73411 779.39945,-411.73411 C 773.62386,-411.73411 768.2926,-408.17982 766.51563,-402.40423 L 766.51563,-411.28978 L 750.96618,-410.84545 L 750.96618,-407.29116 L 751.85484,-407.29116 C 756.74177,-407.29116 757.63008,-405.51419 757.63008,-398.40597 L 757.63008,-372.194 C 757.63008,-364.64144 756.74177,-362.86447 751.85484,-362.86447 L 750.07752,-362.86447 L 750.07752,-359.75451 L 774.06819,-359.75451 L 774.06819,-362.86447 L 772.7352,-362.86447 C 767.84827,-362.86447 766.95996,-364.64144 766.95996,-372.194 L 766.95996,-385.96648 C 766.95996,-394.40734 767.40429,-397.96164 769.18126,-401.51593 C 770.95823,-405.06986 773.62386,-406.84719 776.73382,-406.84719 C 779.39945,-406.84719 781.62075,-405.51419 782.50941,-403.29289 C 783.84205,-400.62726 784.28638,-398.40597 784.28638,-389.07644 L 784.28638,-359.75451 L 800.72413,-359.75451 L 800.72413,-362.86447 L 799.39149,-362.86447 C 794.50457,-362.86447 793.6159,-364.64144 793.6159,-372.194 L 793.6159,-385.96648 C 793.6159,-395.29601 794.06023,-397.96164 795.8372,-401.51593 C 797.61453,-405.06986 800.72413,-406.84719 803.83409,-406.84719 C 806.05539,-406.84719 808.27705,-405.95852 809.16535,-403.73723 C 810.49834,-401.51593 810.94232,-397.96164 810.94232,-390.85341 L 810.94232,-359.75451 L 810.94232,-359.75451 z " style="fill:#999" id="path24196"/>
      <path d="M 349.79225,-535.24069 L 353.79088,-535.24069 C 380.89115,-535.24069 393.33064,-520.13557 398.6619,-479.26281 L 407.10312,-480.15148 L 405.77013,-544.12624 L 268.93541,-544.12624 L 267.60241,-480.15148 L 275.5993,-479.26281 C 276.93229,-494.36793 278.70926,-502.80915 282.26355,-511.25037 C 288.48312,-526.35549 301.81127,-535.24069 318.24938,-535.24069 L 324.02462,-535.24069 L 324.02462,-394.85167 C 324.02462,-380.19089 323.13631,-375.30396 320.02635,-372.194 C 317.36072,-369.52837 311.58513,-367.7514 305.36556,-367.7514 L 298.70131,-367.7514 L 298.70131,-358.86585 L 375.11556,-358.86585 L 375.11556,-367.7514 L 368.45166,-367.7514 C 362.23174,-367.7514 356.45651,-369.52837 353.79088,-372.194 C 350.68091,-375.30396 349.79225,-380.19089 349.79225,-394.85167 L 349.79225,-535.24069 z " style="fill:#e50765" id="path24198"/>
    </g>
  </g>
</svg>