<svg class="enbw-logo" xmlns="http://www.w3.org/2000/svg" aria-label="Logo der EnBW" aria-description="Das Logo der EnBW Energie Baden-Württemberg AG besteht aus der stilisierten Darstellung der 4 blauen Lettern &quot;EnBW&quot; mit einem vorangestellten orangefarbenen Balken." role="img" viewBox="0 0 101.53 17.83"> 	<path d="M32.1,8.9c-0.9-1-1.5-2.2-1.5-3.7c0-2.9,2.3-5.2,5.2-5.2h9.4v3.1h-9.4c-1.1,0-2.1,0.9-2.1,2.1 &#9;&#9;c0,1.1,0.9,2.1,2.1,2.1H42v3.1h-6.2c-1.1,0-2.1,0.9-2.1,2.1c0,1.1,0.9,2.1,2.1,2.1h9.4v3.1h-9.4c-2.9,0-5.2-2.3-5.2-5.2 &#9;&#9;C30.6,11.2,31.1,9.9,32.1,8.9 M56.1,8.4c1.1,0,2.1,0.9,2.1,2.1v7.3h3.1v-7.3c0-2.9-2.3-5.2-5.2-5.2h-8.4v12.5h3.1V8.4 &#9;&#9;C50.8,8.4,56.1,8.4,56.1,8.4z M92.3,16.3c1,0.9,2.4,1.5,3.8,1.5c2.9,0,5.4-2.4,5.4-5.3V0.1h-3.1v12.4c0,1.1-1.1,2.2-2.2,2.2 &#9;&#9;s-2.2-1-2.2-2.2V5.3h-3.2v7.2c0,1.1-1.1,2.2-2.2,2.2s-2.2-1-2.2-2.2V0.1h-3.1v12.4c0,2.9,2.5,5.3,5.4,5.3 &#9;&#9;C90,17.8,91.4,17.2,92.3,16.3 M67.6,3.2h7.3C76,3.2,77,4.1,77,5.3c0,1.1-0.9,2.1-2.1,2.1h-4.2v3.1h4.2c1.1,0,2.1,0.9,2.1,2.1 &#9;&#9;c0,1.1-0.9,2.1-2.1,2.1H64.4v3.1h10.4c2.9,0,5.2-2.3,5.2-5.2c0-1.4-0.6-2.7-1.5-3.7c0.9-1,1.5-2.2,1.5-3.7C80,2.3,77.7,0,74.8,0 &#9;&#9;H64.4v11.5h3.1L67.6,3.2" fill="#009" style="--darkreader-inline-fill: #00007a;" data-darkreader-inline-fill=""/> 	<path d="M25.7,10.3V7.6H1.3C0.6,7.6,0,8.2,0,8.9s0.6,1.3,1.3,1.3h24.4C25.7,10.2,25.7,10.3,25.7,10.3z" fill="#f90" style="--darkreader-inline-fill: #ffa31a;" data-darkreader-inline-fill=""/> </svg>