<?xml version="1.0" encoding="utf-8"?>
<!-- Generator: Adobe Illustrator 22.1.0, SVG Export Plug-In . SVG Version: 6.00 Build 0)  -->
<svg version="1.1" id="Layer_1" xmlns="http://www.w3.org/2000/svg" xmlns:xlink="http://www.w3.org/1999/xlink" x="0px" y="0px"
	 width="261.44px" height="300.5px" viewBox="0 0 261.44 300.5" enable-background="new 0 0 261.44 300.5" xml:space="preserve">
<g>
	<polygon fill="#FFE600" points="0.22,95.49 261.19,0.25 261.22,0.25 261.22,49.45 0.22,95.52 	"/>
	<path fill="#808080" d="M5.84,250.01h5.49l0.74-0.15l0.59-0.15l0.59-0.3l0.3-0.3l0.3-0.3l0.15-0.44l0.15-0.89L14,246.9l-0.15-0.44
		l-0.15-0.44l-0.3-0.3l-0.44-0.3l-0.59-0.15l-1.33-0.15h-5.2V250.01z M5.84,260.24h5.49h0.74l0.74-0.15l0.59-0.3l0.44-0.44
		l0.44-0.44l0.3-0.59l0.15-0.59l0.15-0.74l-0.15-0.74l-0.15-0.74l-0.3-0.59l-0.3-0.44l-0.59-0.3l-0.59-0.3l-0.59-0.15h-0.89H5.84
		V260.24z M1.69,264.09v-22.97h9.79l1.48,0.15l1.48,0.3l1.19,0.44l1.04,0.74l0.89,0.89l0.59,1.04l0.3,1.19l0.15,1.33l-0.15,0.59
		l-0.15,0.74l-0.15,0.59l-0.3,0.74l-0.44,0.44l-0.44,0.59l-0.44,0.44l-0.59,0.3l1.04,0.59l0.59,0.44l0.59,0.59l0.44,0.59l0.44,0.89
		l0.15,0.89l0.15,1.19l-0.15,1.63l-0.44,1.48l-0.59,1.19l-0.89,1.04l-1.19,0.89l-1.33,0.59l-1.63,0.3l-1.78,0.15L1.69,264.09
		L1.69,264.09z M27.64,264.39l-0.89-0.15l-0.74-0.15l-0.74-0.44l-0.59-0.3l-0.44-0.59l-0.89-1.04l-0.59-1.19l-0.3-1.33l-0.15-1.19
		v-1.19v-9.49h4.15v9.19v1.04l0.15,0.89l0.3,0.59l0.3,0.59l0.45,0.44l0.44,0.3l0.74,0.3h0.74h0.59l0.74-0.3l0.44-0.3l0.45-0.44
		l0.44-0.59l0.15-0.59l0.15-0.89l0.15-0.89v-9.34h4v16.75h-4v-1.33l-0.89,0.74l-0.89,0.59l-1.19,0.3l-1.19,0.15L27.64,264.39z
		 M91.71,264.09v-9.19v-1.04l-0.15-0.74l-0.3-0.74l-0.3-0.59l-0.44-0.44l-0.45-0.3l-0.74-0.15l-0.59-0.15L88,250.9l-0.74,0.15
		l-0.44,0.3l-0.44,0.44l-0.45,0.59l-0.3,0.74l-0.15,0.74v1.04v9.19h-4.15v-16.75h4.15v1.48l0.89-0.89l1.04-0.44l1.04-0.44h1.19h1.48
		l1.19,0.44l1.04,0.59l0.89,0.89l0.74,1.04l0.44,1.33l0.3,1.48l0.15,1.78v9.49L91.71,264.09L91.71,264.09z M40.54,247.34h4.15v16.75
		h-4.15V247.34z M48.25,264.09v-21.64l4.15-2.08v23.72H48.25z M62.19,250.9l-0.59,0.15l-0.59,0.15l-0.44,0.44l-0.44,0.59l-0.3,0.89
		l-0.15,1.04l-0.15,1.33l0.15,1.48l0.15,1.19l0.3,0.89l0.44,0.59l0.59,0.44l0.44,0.3l0.59,0.3h0.59l0.89-0.15l0.89-0.44l0.59-0.44
		l0.44-0.59v-6.67l-0.44-0.44l-0.59-0.59l-0.89-0.44l-1.04-0.15L62.19,250.9z M60.41,264.39l-1.33-0.44l-1.04-0.74L57,262.16
		l-0.74-1.33l-0.44-1.48l-0.3-1.78l-0.15-1.93l0.15-1.93l0.3-1.78l0.59-1.33l0.74-1.33l0.89-0.89l1.19-0.74l1.19-0.44l1.48-0.15
		h1.04l1.04,0.3l0.89,0.44l0.74,0.74v-6.08l4.15-2.07v23.72h-4.15v-1.19l-0.89,0.59l-0.89,0.59l-0.89,0.3l-1.04,0.15L60.41,264.39z
		 M154.44,250.9l-0.89,0.3l-0.59,0.59l-0.59,0.74v6.52l0.44,0.44l0.59,0.59l0.89,0.44l0.44,0.15h0.59l0.74-0.15l0.59-0.15l0.59-0.44
		l0.44-0.59l0.3-0.74l0.15-0.89l0.15-1.04l0.15-1.19l-0.15-1.19l-0.15-1.04l-0.3-0.74l-0.44-0.74l-0.44-0.44l-0.59-0.3l-0.59-0.15
		l-0.44-0.15L154.44,250.9z M155.03,264.39l-1.04-0.3l-0.89-0.59l-0.74-0.59v1.19h-4.15v-21.2l4.15-2.08v7.71l0.74-0.59l1.04-0.59
		l0.89-0.3h1.04l1.48,0.15l1.19,0.44l1.19,0.74l0.89,0.89l0.74,1.33l0.59,1.33l0.3,1.78l0.15,1.93l-0.15,1.93l-0.3,1.78l-0.44,1.48
		l-0.74,1.33l-1.04,1.04l-1.04,0.74l-1.33,0.44l-1.48,0.15L155.03,264.39z M104.91,250.9l-0.59,0.3l-0.44,0.44l-0.45,0.59l-0.3,0.89
		l-0.15,1.04l-0.15,1.33l0.15,1.48l0.15,1.04l0.3,1.04l0.45,0.59l0.44,0.44l0.59,0.3l0.59,0.3h0.44l1.04-0.15l0.74-0.44l0.74-0.44
		l0.44-0.59v-6.67l-0.44-0.59l-0.59-0.44l-0.89-0.44l-1.04-0.15h-0.59L104.91,250.9z M103.42,267.65h0.15l1.78-0.15l1.33-0.3
		l0.89-0.44l0.74-0.59l0.3-0.74l0.3-0.74v-1.48v-0.3l-0.89,0.59l-0.89,0.59l-0.89,0.3l-1.19,0.15l-1.33-0.15l-1.33-0.59l-1.04-0.74
		l-1.04-0.89l-0.74-1.33l-0.44-1.48l-0.44-1.78v-2.08v-1.78l0.44-1.78l0.44-1.48l0.89-1.19l0.89-1.04l1.19-0.59l1.19-0.44l1.48-0.15
		h1.04l1.04,0.3l0.89,0.59l0.74,0.59v-1.19h4.15v15.27l-0.15,1.93l-0.3,1.63l-0.74,1.48l-0.3,0.59l-0.59,0.59l-0.44,0.44l-0.59,0.44
		l-1.48,0.59l-1.63,0.44l-1.93,0.15L103.42,267.65z M128.78,256.38l-0.44,0.15l-0.44,0.3l-0.3,0.3l-0.3,0.44l-0.15,0.44v0.59v0.44
		l0.15,0.59l0.3,0.44l0.3,0.3l0.44,0.3l0.44,0.15l0.59,0.15l0.59,0.15l1.04-0.15l1.04-0.44l0.59-0.59l0.59-0.59v-2.37l-0.74-0.3
		l-0.74-0.3l-0.89-0.15h-0.89h-0.59L128.78,256.38z M128.04,264.39l-1.04-0.15l-1.04-0.44l-0.89-0.59l-0.89-0.89l-0.59-1.04
		l-0.44-1.19l-0.15-1.48l0.15-1.48l0.44-1.19l0.74-0.89l0.89-0.74l1.04-0.59l1.04-0.3l1.19-0.3h1.19h0.89l1.04,0.15l0.89,0.3
		l0.74,0.3v-1.19v-0.44l-0.15-0.59l-0.3-0.44l-0.3-0.3l-0.44-0.3l-0.59-0.15l-1.19-0.15l-1.19,0.15l-1.19,0.15l-1.04,0.44
		l-0.89,0.44l-1.63-2.82l1.48-0.74l1.48-0.59l1.63-0.3h1.63h1.48l1.33,0.3l1.19,0.59l1.04,0.59l0.74,0.89l0.59,0.89l0.3,1.19
		l0.15,1.33v11.27h-4.15v-1.33l-0.89,0.74l-1.19,0.59l-1.04,0.3l-0.89,0.15L128.04,264.39z M171.49,250.6l-0.59,0.15l-0.59,0.3
		l-0.44,0.44l-0.3,0.44l-0.3,0.59l-0.3,0.74V254h6.23l-0.15-1.33l-0.3-0.59l-0.3-0.44l-0.44-0.44l-0.59-0.44l-0.59-0.15l-0.74-0.15
		L171.49,250.6z M170.9,264.39l-1.63-0.59l-1.33-0.74l-1.04-0.89l-1.04-1.33l-0.59-1.48l-0.44-1.63l-0.15-1.93l0.15-1.93l0.44-1.63
		l0.59-1.48l0.89-1.33l1.19-1.04l1.19-0.74l1.48-0.44l1.63-0.15l1.48,0.15l1.33,0.44l1.19,0.74l1.04,1.04l0.89,1.19l0.59,1.48
		l0.3,1.78l0.15,1.93V257h-10.38l0.3,1.19l0.3,0.89l0.59,0.59l0.44,0.44l0.74,0.3l0.44,0.15l1.04,0.15l1.04-0.15l0.89-0.3l0.74-0.44
		l0.59-0.59l2.67,2.67l-0.74,0.59l-0.59,0.59l-0.74,0.44l-0.74,0.3l-1.48,0.59l-1.63,0.15L170.9,264.39z M211.39,250.6l-0.59,0.15
		l-0.44,0.3l-0.44,0.44l-0.44,0.44l-0.3,0.59l-0.15,0.74V254h6.23l-0.3-1.33l-0.15-0.59l-0.3-0.44l-0.44-0.44l-0.59-0.44l-0.59-0.15
		l-0.74-0.15L211.39,250.6z M210.94,264.39l-1.63-0.59l-1.33-0.74l-1.19-0.89l-0.89-1.33l-0.74-1.48l-0.3-1.63l-0.15-1.93l0.15-1.93
		l0.3-1.63l0.74-1.48l0.89-1.33l1.04-1.04l1.33-0.74l1.48-0.44l1.48-0.15l1.63,0.15l1.33,0.44l1.19,0.74l1.04,1.04l0.74,1.19
		l0.59,1.48l0.44,1.78l0.15,1.93V257h-10.38l0.15,1.19l0.44,0.89l0.44,0.59l0.59,0.44l0.59,0.3l0.59,0.15l0.89,0.15l1.04-0.15
		l0.89-0.3l0.74-0.44l0.74-0.59l2.52,2.67l-0.59,0.59l-0.74,0.59l-0.59,0.44l-0.74,0.3l-1.63,0.59l-1.63,0.15L210.94,264.39z
		 M198.19,264.38l-1.04-0.44l-0.74-0.44l-0.59-0.74l-0.44-0.74l-0.3-0.89l-0.15-0.89l-0.15-0.89v-8.15h-2.52v-3.85h2.52v-4.3
		l4.15-2.08v6.37h3.86v3.85h-3.86v7.11l0.15,1.04l0.3,0.59l0.3,0.3l0.3,0.15l0.74,0.15h0.74l0.59-0.15l1.19-0.59l-0.44,3.85
		l-0.74,0.44l-0.89,0.15l-0.89,0.15l-1.04,0.15L198.19,264.38z M186.32,264.38l-1.04-0.44l-0.74-0.44l-0.59-0.74l-0.45-0.74
		l-0.3-0.89l-0.15-0.89l-0.15-0.89v-8.15h-2.52v-3.85h2.52v-4.3l4.15-2.08v6.37h3.56v3.85h-3.56v7.11l0.15,1.04l0.3,0.59l0.3,0.3
		l0.3,0.15l0.74,0.15h0.74l0.59-0.15l1.19-0.59l-0.44,3.85l-0.74,0.44l-0.89,0.15l-0.89,0.15l-1.04,0.15L186.32,264.38z
		 M221.92,264.09v-16.75h4.15v1.48l0.74-0.89l0.89-0.44l1.04-0.44h1.04h0.74l0.89,0.15l0.74,0.44l0.74,0.3l-1.19,4.15l-0.59-0.44
		l-0.59-0.3l-0.74-0.15h-0.74h-0.74l-0.59,0.15l-0.44,0.3l-0.44,0.44l-0.3,0.59l-0.3,0.59l-0.15,0.89v0.89v9.04L221.92,264.09
		L221.92,264.09z M40.54,240.82h4.15v4.15h-4.15V240.82z M73.47,247.34h4.15v16.75h-4.15V247.34z M73.47,240.82h4.15v4.15h-4.15
		V240.82z M187.36,280.24l-0.44,0.3l-0.44,0.44l-0.44,0.59l-0.3,0.74l-0.3,1.19v1.19v1.48l0.3,1.19l0.3,0.89l0.44,0.74l0.44,0.44
		l0.59,0.3l0.45,0.15h0.59h1.04l0.74-0.44l0.59-0.59l0.59-0.59v-6.52l-0.44-0.59l-0.74-0.44l-0.74-0.44l-1.04-0.15h-0.59
		L187.36,280.24z M187.66,293.73l-1.48-0.15l-1.19-0.44l-1.19-0.74l-0.89-1.04l-0.74-1.19l-0.59-1.63l-0.3-1.63l-0.15-2.08
		l0.15-1.93l0.3-1.63l0.59-1.48l0.74-1.19l0.89-1.04l1.19-0.74l1.33-0.44l1.48-0.15l0.89,0.15l1.04,0.3l0.89,0.44l0.89,0.74v-6.08
		l4.15-2.07v23.72h-4.15v-1.33l-0.89,0.74l-1.04,0.59l-0.89,0.3L187.66,293.73L187.66,293.73z M40.84,293.43v-16.75h4.15v1.48
		l0.74-0.89l0.89-0.59l0.89-0.3l1.19-0.15l0.74,0.15l0.89,0.15l0.74,0.3l0.74,0.44l-1.19,4l-0.59-0.3l-0.74-0.3l-0.59-0.15
		l-0.74-0.15l-0.74,0.15l-0.59,0.15l-0.59,0.3l-0.3,0.44l-0.44,0.44l-0.15,0.74L45,283.33v1.04v9.04h-4.16V293.43z M13.85,293.43
		l-1.78-6.97l-1.04-3.71l-0.89,3.85l-1.78,6.82H4.8l-0.15-0.15l-4.44-16.02v-0.59H4.2l1.63,6.23l0.74,4.15l0.59-2.22l0.45-2.08
		l1.78-6.08h3.56l1.63,6.08l1.04,4.3l0.89-4.3l1.48-6.08h4.15l-4.75,16.75h-3.54V293.43z M29.27,280.54l-0.59,0.44l-0.59,0.44
		l-0.3,0.74l-0.3,0.89l-0.15,0.89l-0.15,1.04l0.15,1.04l0.15,1.04l0.3,0.74l0.3,0.74l0.59,0.59l0.59,0.44l0.59,0.15l0.74,0.15
		l0.74-0.15l0.59-0.15l0.59-0.44l0.59-0.59l0.3-0.74l0.3-0.74l0.3-1.04v-1.04v-1.04l-0.3-0.89l-0.3-0.89l-0.3-0.74l-0.59-0.44
		l-0.59-0.44l-0.59-0.3H30.6h-0.74L29.27,280.54z M28.97,293.58l-1.48-0.44l-1.19-0.74l-1.19-1.04l-0.89-1.33l-0.74-1.48l-0.3-1.63
		l-0.15-1.93l0.15-1.78l0.3-1.63l0.74-1.63l0.89-1.19l1.19-1.04l1.19-0.74l1.48-0.59l1.63-0.15l1.63,0.15l1.48,0.59l1.19,0.74
		l1.19,1.04l0.89,1.19l0.74,1.63l0.3,1.63l0.15,1.78l-0.15,1.93l-0.3,1.63l-0.74,1.48l-0.89,1.33l-1.19,1.04l-1.19,0.74l-1.48,0.44
		l-1.63,0.15L28.97,293.58z M161.11,293.43v-16.75h4.15v1.48l0.89-0.89l0.89-0.59l0.89-0.3l1.04-0.15l0.89,0.15l0.89,0.15l0.74,0.3
		l0.59,0.44l-1.04,4l-0.59-0.3l-0.74-0.3l-0.74-0.15l-0.74-0.15l-0.59,0.15l-0.59,0.15l-0.59,0.3l-0.44,0.44l-0.3,0.44l-0.15,0.74
		l-0.15,0.74l-0.15,1.04v9.04h-4.16V293.43z M134.27,293.43l-1.93-6.97l-0.89-3.71l-0.89,3.85l-1.93,6.82h-3.56v-0.15l-4.75-16.6
		h4.3l1.48,6.23l0.89,4.15l0.44-2.22l0.59-2.08l1.78-6.08h3.41l1.78,6.08l1.04,4.3l0.89-4.3l1.48-6.08h4.15l-4.75,16.75
		L134.27,293.43L134.27,293.43z M149.55,280.54l-0.59,0.44l-0.44,0.44l-0.44,0.74l-0.3,0.89l-0.15,0.89v1.04v1.04l0.15,1.04
		l0.3,0.74l0.44,0.74l0.44,0.59l0.59,0.44l0.74,0.15l0.74,0.15l0.74-0.15l0.59-0.15l0.59-0.44l0.45-0.59l0.44-0.74l0.3-0.74
		l0.15-1.04v-1.04v-1.04l-0.15-0.89l-0.3-0.89l-0.44-0.74l-0.45-0.44l-0.59-0.44l-0.59-0.3h-0.74h-0.74L149.55,280.54z
		 M149.4,293.58l-1.48-0.44l-1.33-0.74l-1.04-1.04l-0.89-1.33l-0.74-1.48l-0.45-1.63l-0.15-1.93l0.15-1.78l0.45-1.63l0.74-1.48
		l0.89-1.33l1.04-1.04l1.33-0.74l1.48-0.59l1.63-0.15l1.48,0.15l1.48,0.59l1.33,0.74l1.04,1.04l1.04,1.33l0.59,1.48l0.44,1.63
		l0.15,1.78l-0.15,1.93l-0.44,1.63l-0.59,1.48l-1.04,1.33l-1.04,1.04l-1.33,0.74l-1.48,0.44l-1.48,0.15L149.4,293.58z M63.53,293.43
		l-3.56-7.86l-2.08,2.82v5.04h-4.15v-21.64l4.15-2.08v13.34l1.48-2.08l3.26-4.3h4.89l-4.45,5.48l5.04,11.27L63.53,293.43
		L63.53,293.43z M88.89,293.43v-9.34v-0.89l-0.15-0.89l-0.3-0.74l-0.3-0.44l-0.44-0.44l-0.45-0.3l-0.59-0.3h-0.74h-0.74l-0.74,0.3
		l-0.44,0.3l-0.44,0.44l-0.44,0.59l-0.15,0.59l-0.15,0.89l-0.15,0.89v9.34h-4.15v-16.75h4.15v1.33l0.89-0.74l1.04-0.59l1.04-0.3
		l1.33-0.15l1.33,0.15l1.33,0.44l1.04,0.59l0.89,0.74l0.59,1.19l0.44,1.33l0.3,1.48l0.15,1.78v9.49h-4.15V293.43z M102.09,280.24
		l-0.59,0.3l-0.44,0.44l-0.45,0.59l-0.3,0.74l-0.15,1.19l-0.15,1.19l0.15,1.48l0.15,1.19l0.3,0.89l0.45,0.74l0.59,0.44l0.44,0.3
		l0.59,0.15h0.44h1.04l0.74-0.44l0.74-0.59l0.44-0.59v-6.52l-0.44-0.59l-0.59-0.44l-0.89-0.44l-1.04-0.15h-0.44L102.09,280.24z
		 M100.61,296.99h0.15l1.78-0.15l1.33-0.3l0.89-0.59l0.74-0.59l0.3-0.59l0.3-0.74v-1.48v-0.44l-0.74,0.74l-1.04,0.44l-0.89,0.44
		h-1.04l-1.48-0.15l-1.33-0.44l-1.04-0.74l-1.04-1.04l-0.74-1.19l-0.44-1.63l-0.3-1.78l-0.15-1.93l0.15-1.93l0.3-1.63l0.59-1.48
		l0.74-1.19l0.89-1.04l1.19-0.74l1.19-0.44l1.48-0.15l1.04,0.15l1.04,0.3l0.89,0.44l0.74,0.74v-1.19h4.15v15.12l-0.15,1.93
		l-0.3,1.78l-0.59,1.48l-0.44,0.59l-0.44,0.44l-0.59,0.59l-0.59,0.44l-1.48,0.59l-1.63,0.44l-1.93,0.15L100.61,296.99z
		 M70.65,276.68h4.15v16.75h-4.15V276.68z M70.65,270.16h4.15v4.15h-4.15V270.16z M174.16,293.43v-21.64l4.15-2.08v23.72H174.16z
		 M1.69,218.13v-94.27h53.54l12.46,21.64H29.86v15.56h34.26v19.86H29.86v15.56h47.31v21.64H1.69V218.13z M125.22,218.13v-37.2
		l33.07-57.07h-31l-16.02,30.83L95.4,123.86H64.12l32.92,57.07v37.2L125.22,218.13L125.22,218.13z"/>
</g>
</svg>
